<svg width="157" height="24" viewBox="0 0 157 24" fill="none" xmlns="http://www.w3.org/2000/svg">
<path d="M36.0148 20H32.5926L36.608 12.0076L32.5926 4H36.0148L38.3039 8.6019L40.6538 4H44L36.0148 20Z" fill="#0F172A"/>
<path fill-rule="evenodd" clip-rule="evenodd" d="M25.803 13.7219C27.8635 13.1505 29.3806 11.2457 29.3957 8.99048V8.95238V8.91428C29.373 6.19428 27.1842 4 24.4897 4H18.0741V6.88L20.4894 10.8495H18.0816V20H21.1007V13.8971H22.3687L26.0799 20H29.6297L25.803 13.7219ZM24.0519 10.8571H24.4972C25.5388 10.8571 26.3841 10.0038 26.3841 8.95238C26.3841 7.90095 25.5388 7.04762 24.4972 7.04762H21.7196L24.0519 10.8571Z" fill="#0F172A"/>
<path fill-rule="evenodd" clip-rule="evenodd" d="M8 4C3.58096 4 0 7.58095 0 12C0 16.419 3.58096 20 8 20C12.4191 20 16 16.419 16 12C16 7.58095 12.4191 4 8 4ZM3.04762 12C3.04762 14.7352 5.26476 16.9524 8 16.9524C10.7352 16.9524 12.9524 14.7352 12.9524 12C12.9524 9.26476 10.7352 7.04762 8 7.04762C5.26476 7.04762 3.04762 9.26476 3.04762 12Z" fill="#0F172A"/>
<path d="M50.5 20H48L56.0612 4H58.5L50.5 20Z" fill="#0F172A"/>
<path d="M64.0781 20V4H74.4844V6.42969H66.9766V10.7734H73.9453V13.2031H66.9766V17.5703H74.5469V20H64.0781ZM79.4845 4V20H76.6564V4H79.4845ZM87.0452 20.2344C85.8421 20.2344 84.803 19.9844 83.928 19.4844C83.0583 18.9792 82.389 18.2656 81.9202 17.3437C81.4515 16.4167 81.2171 15.3255 81.2171 14.0703C81.2171 12.8359 81.4515 11.7526 81.9202 10.8203C82.3942 9.88281 83.0557 9.15365 83.9046 8.63281C84.7536 8.10677 85.751 7.84375 86.8968 7.84375C87.6364 7.84375 88.3343 7.96354 88.9905 8.20312C89.652 8.4375 90.2353 8.80208 90.7405 9.29687C91.251 9.79167 91.652 10.4219 91.9437 11.1875C92.2353 11.9479 92.3812 12.8542 92.3812 13.9062V14.7734H82.5452V12.8672H89.6702C89.665 12.3255 89.5478 11.8437 89.3187 11.4219C89.0895 10.9948 88.7692 10.6589 88.3577 10.4141C87.9515 10.1693 87.4775 10.0469 86.9359 10.0469C86.3577 10.0469 85.8499 10.1875 85.4124 10.4687C84.9749 10.7448 84.6338 11.1094 84.389 11.5625C84.1494 12.0104 84.027 12.5026 84.0218 13.0391V14.7031C84.0218 15.401 84.1494 16 84.4046 16.5C84.6598 16.9948 85.0166 17.375 85.4749 17.6406C85.9333 17.901 86.4697 18.0312 87.0843 18.0312C87.4958 18.0312 87.8682 17.974 88.2015 17.8594C88.5348 17.7396 88.8239 17.5651 89.0687 17.3359C89.3135 17.1068 89.4984 16.8229 89.6234 16.4844L92.264 16.7812C92.0973 17.4792 91.7796 18.0885 91.3109 18.6094C90.8473 19.125 90.2536 19.526 89.5296 19.8125C88.8057 20.0937 87.9775 20.2344 87.0452 20.2344ZM94.1138 20V8H96.8169V10.0391H96.9575C97.2075 9.35156 97.6216 8.8151 98.1997 8.42969C98.7778 8.03906 99.4679 7.84375 100.27 7.84375C101.083 7.84375 101.767 8.04167 102.325 8.4375C102.887 8.82812 103.283 9.36198 103.512 10.0391H103.637C103.903 9.3724 104.351 8.84115 104.981 8.44531C105.616 8.04427 106.369 7.84375 107.239 7.84375C108.343 7.84375 109.244 8.19271 109.942 8.89062C110.64 9.58854 110.989 10.6068 110.989 11.9453V20H108.153V12.3828C108.153 11.638 107.955 11.0937 107.559 10.75C107.163 10.401 106.679 10.2266 106.106 10.2266C105.424 10.2266 104.89 10.4401 104.504 10.8672C104.124 11.2891 103.934 11.8385 103.934 12.5156V20H101.161V12.2656C101.161 11.6458 100.973 11.151 100.598 10.7812C100.228 10.4115 99.744 10.2266 99.145 10.2266C98.7388 10.2266 98.369 10.3307 98.0356 10.5391C97.7023 10.7422 97.4367 11.0312 97.2388 11.4062C97.0408 11.776 96.9419 12.2083 96.9419 12.7031V20H94.1138ZM118.51 20.2344C117.307 20.2344 116.268 19.9844 115.393 19.4844C114.523 18.9792 113.854 18.2656 113.385 17.3437C112.917 16.4167 112.682 15.3255 112.682 14.0703C112.682 12.8359 112.917 11.7526 113.385 10.8203C113.859 9.88281 114.521 9.15365 115.37 8.63281C116.219 8.10677 117.216 7.84375 118.362 7.84375C119.102 7.84375 119.799 7.96354 120.456 8.20312C121.117 8.4375 121.7 8.80208 122.206 9.29687C122.716 9.79167 123.117 10.4219 123.409 11.1875C123.7 11.9479 123.846 12.8542 123.846 13.9062V14.7734H114.01V12.8672H121.135C121.13 12.3255 121.013 11.8437 120.784 11.4219C120.555 10.9948 120.234 10.6589 119.823 10.4141C119.417 10.1693 118.943 10.0469 118.401 10.0469C117.823 10.0469 117.315 10.1875 116.878 10.4687C116.44 10.7448 116.099 11.1094 115.854 11.5625C115.615 12.0104 115.492 12.5026 115.487 13.0391V14.7031C115.487 15.401 115.615 16 115.87 16.5C116.125 16.9948 116.482 17.375 116.94 17.6406C117.398 17.901 117.935 18.0312 118.549 18.0312C118.961 18.0312 119.333 17.974 119.667 17.8594C120 17.7396 120.289 17.5651 120.534 17.3359C120.779 17.1068 120.964 16.8229 121.089 16.4844L123.729 16.7812C123.562 17.4792 123.245 18.0885 122.776 18.6094C122.312 19.125 121.719 19.526 120.995 19.8125C120.271 20.0937 119.443 20.2344 118.51 20.2344ZM128.407 12.9687V20H125.579V8H128.282V10.0391H128.423C128.699 9.36719 129.139 8.83333 129.743 8.4375C130.352 8.04167 131.105 7.84375 132.001 7.84375C132.829 7.84375 133.55 8.02083 134.165 8.375C134.785 8.72917 135.264 9.24219 135.602 9.91406C135.946 10.5859 136.115 11.401 136.11 12.3594V20H133.282V12.7969C133.282 11.9948 133.074 11.3672 132.657 10.9141C132.246 10.4609 131.675 10.2344 130.946 10.2344C130.451 10.2344 130.011 10.3437 129.626 10.5625C129.246 10.776 128.946 11.0859 128.727 11.4922C128.514 11.8984 128.407 12.3906 128.407 12.9687ZM144.317 8V10.1875H137.419V8H144.317ZM139.122 5.125H141.95V16.3906C141.95 16.7708 142.007 17.0625 142.122 17.2656C142.242 17.4635 142.398 17.599 142.591 17.6719C142.783 17.7448 142.997 17.7812 143.231 17.7812C143.408 17.7812 143.57 17.7682 143.716 17.7422C143.867 17.7161 143.981 17.6927 144.06 17.6719L144.536 19.8828C144.385 19.9349 144.169 19.9922 143.888 20.0547C143.612 20.1172 143.273 20.1536 142.872 20.1641C142.164 20.1849 141.526 20.0781 140.958 19.8437C140.39 19.6042 139.94 19.2344 139.606 18.7344C139.278 18.2344 139.117 17.6094 139.122 16.8594V5.125ZM155.335 11.1719L152.757 11.4531C152.684 11.1927 152.556 10.9479 152.374 10.7188C152.197 10.4896 151.957 10.3047 151.655 10.1641C151.353 10.0234 150.984 9.95312 150.546 9.95312C149.957 9.95312 149.463 10.0807 149.062 10.3359C148.666 10.5911 148.47 10.9219 148.476 11.3281C148.47 11.6771 148.598 11.9609 148.859 12.1797C149.124 12.3984 149.562 12.5781 150.171 12.7188L152.218 13.1562C153.353 13.401 154.197 13.7891 154.749 14.3203C155.306 14.8516 155.588 15.5469 155.593 16.4062C155.588 17.1615 155.366 17.8281 154.929 18.4062C154.497 18.9792 153.895 19.4271 153.124 19.75C152.353 20.0729 151.468 20.2344 150.468 20.2344C148.999 20.2344 147.817 19.9271 146.921 19.3125C146.025 18.6927 145.491 17.8307 145.319 16.7266L148.077 16.4609C148.202 17.0026 148.468 17.4115 148.874 17.6875C149.28 17.9635 149.809 18.1016 150.46 18.1016C151.132 18.1016 151.671 17.9635 152.077 17.6875C152.489 17.4115 152.694 17.0703 152.694 16.6641C152.694 16.3203 152.562 16.0365 152.296 15.8125C152.036 15.5885 151.629 15.4167 151.077 15.2969L149.03 14.8672C147.879 14.6276 147.028 14.224 146.476 13.6562C145.924 13.0833 145.65 12.3594 145.655 11.4844C145.65 10.7448 145.851 10.1042 146.257 9.5625C146.668 9.01562 147.239 8.59375 147.968 8.29687C148.702 7.99479 149.549 7.84375 150.507 7.84375C151.913 7.84375 153.02 8.14323 153.827 8.74219C154.64 9.34115 155.142 10.151 155.335 11.1719Z" fill="#4F46E5"/>
</svg>
